<svg version="1.0" xmlns="http://www.w3.org/2000/svg"
 viewBox="0 0 346.000000 379.000000"
 preserveAspectRatio="xMidYMid meet">
<g transform="translate(0.000000,379.000000) scale(0.100000,-0.100000)"
fill="#444444" stroke="none">
<path d="M1682 3703 c-45 -25 -79 -49 -77 -54 3 -4 56 -37 119 -74 79 -46 119
-63 132 -59 11 4 50 25 88 47 l69 39 -61 39 c-33 21 -89 54 -124 74 l-64 35
-82 -47z"/>
<path d="M1259 3397 c-197 -115 -239 -141 -239 -148 0 -11 286 -159 308 -159
12 0 52 18 89 41 l67 41 150 -78 c83 -43 164 -86 180 -95 28 -17 31 -17 70 3
88 45 316 181 316 189 0 19 -192 139 -223 139 -9 0 -50 -17 -92 -37 l-75 -37
-57 28 c-32 15 -122 64 -200 107 -78 43 -148 79 -155 79 -8 0 -70 -33 -139
-73z"/>
<path d="M2216 3438 c-46 -23 -46 -23 69 -93 l87 -53 34 20 c19 11 36 24 39
29 7 10 -44 43 -130 87 l-60 30 -39 -20z"/>
<path d="M2529 3086 c-101 -57 -184 -110 -184 -117 0 -12 302 -199 400 -248
l46 -23 77 48 c173 108 272 174 272 183 0 9 -311 200 -396 244 l-31 16 -184
-103z"/>
<path d="M574 3077 c-191 -109 -274 -162 -271 -170 4 -12 218 -134 248 -142
20 -5 62 16 214 108 104 62 190 118 192 123 3 10 -16 22 -153 95 -50 27 -97
49 -105 49 -8 0 -64 -28 -125 -63z"/>
<path d="M1127 2738 c-217 -139 -233 -151 -223 -166 9 -15 239 -152 256 -152
6 0 104 61 217 136 l205 136 -33 22 c-19 13 -82 49 -140 80 l-106 56 -176
-112z"/>
<path d="M1864 2502 c-285 -171 -394 -241 -394 -253 0 -8 115 -78 246 -150
l61 -33 199 124 c195 121 424 268 434 277 6 5 9 3 -154 98 -71 41 -137 75
-146 75 -9 0 -120 -62 -246 -138z"/>
<path d="M266 2373 c-3 -21 -6 -91 -6 -155 0 -65 -3 -118 -7 -118 -5 0 -41 18
-81 40 -40 22 -75 40 -76 40 -12 0 -16 -313 -10 -800 l7 -575 668 -385 c366
-211 672 -386 679 -388 10 -4 11 37 6 199 -4 112 -11 205 -14 207 -4 2 -108
60 -232 130 l-225 128 -3 302 c-1 166 1 302 5 302 5 0 110 -52 235 -115 124
-63 229 -115 232 -115 4 0 5 150 4 333 l-3 332 -160 92 c-88 51 -165 92 -171
93 -8 0 -14 -67 -19 -212 -4 -117 -8 -214 -9 -215 -1 -2 -138 70 -304 158
l-302 161 -1 181 c-1 100 -4 211 -8 246 l-6 65 -90 53 c-49 28 -93 52 -96 53
-4 0 -9 -17 -13 -37z"/>
<path d="M2950 2252 l-225 -127 -3 -162 c-2 -115 1 -163 9 -163 6 0 88 39 182
88 94 48 174 89 179 90 5 2 7 -153 6 -344 l-3 -348 -380 -198 -380 -198 -6
218 c-4 119 -7 336 -8 482 -1 146 -5 271 -9 277 -6 9 -41 -6 -127 -55 l-120
-67 -3 -809 c-1 -444 1 -828 5 -852 l8 -44 665 383 665 384 3 702 c1 385 -1
701 -5 701 -5 0 -51 -25 -103 -55 -55 -31 -96 -49 -97 -42 -1 7 -5 69 -8 140
-4 70 -10 127 -14 126 -3 0 -107 -58 -231 -127z"/>
</g>
</svg>
