<svg
	version="1.0"
	xmlns="http://www.w3.org/2000/svg"
	viewBox="0 0 512.000000 512.000000"
	preserveAspectRatio="xMidYMid meet"
>
<g transform="translate(0.000000,512.000000) scale(0.100000,-0.100000)"
fill="#444" stroke="none">
<path d="M2535 4420 c-23 -8 -748 -427 -1254 -724 -183 -107 -337 -196 -342
-198 -14 -5 2 -1855 15 -1872 15 -19 1598 -932 1609 -928 14 4 1600 913 1615
924 9 8 12 209 12 942 l0 931 -28 16 c-15 8 -322 186 -682 394 -631 364 -878
505 -910 517 -8 3 -24 2 -35 -2z m-85 -605 l0 -315 112 0 111 0 -5 258 c-3
141 -2 282 1 314 l6 56 160 -92 c88 -50 268 -154 400 -230 132 -76 281 -162
330 -191 50 -29 159 -93 244 -141 84 -49 155 -93 157 -99 2 -5 3 -346 2 -757
l-3 -746 -230 135 c-197 115 -304 173 -321 173 -2 0 -4 -4 -4 -9 0 -5 -20 -44
-45 -87 l-44 -78 42 -28 c23 -16 144 -87 269 -160 125 -72 225 -135 222 -139
-2 -4 -37 -26 -77 -48 -139 -77 -783 -450 -856 -496 -116 -74 -348 -205 -361
-205 -15 0 -74 33 -710 400 -283 163 -534 307 -557 320 -24 13 -43 27 -43 30
0 6 53 38 397 240 l143 84 -29 51 c-16 27 -37 65 -47 82 -11 18 -23 33 -29 33
-5 0 -127 -68 -270 -150 -185 -107 -261 -146 -267 -137 -4 6 -8 348 -8 759 l0
748 37 19 c34 17 235 130 528 296 55 31 242 139 415 240 173 101 318 183 323
184 4 1 7 -141 7 -314z"/>
<path d="M2093 3241 c-380 -4 -694 -8 -697 -12 -6 -6 1151 -2014 1161 -2014 4
0 45 65 91 145 47 80 118 201 160 270 41 69 114 193 162 275 47 83 155 269
240 415 84 146 222 384 305 530 84 146 168 292 188 325 l35 60 -266 6 c-303 7
-418 7 -1379 0z m596 -211 c379 0 443 -2 426 -14 -11 -7 -96 -58 -190 -113
-93 -55 -210 -125 -259 -157 -49 -31 -96 -56 -105 -56 -16 0 -206 105 -465
258 -152 89 -151 95 28 87 66 -3 320 -5 565 -5z m-609 -315 c113 -65 242 -140
288 -167 l82 -49 0 -342 c0 -197 -4 -337 -9 -332 -12 14 -581 1002 -581 1010
0 3 3 4 8 2 4 -2 99 -57 212 -122z m1150 88 c0 -5 -10 -24 -22 -43 -58 -94
-327 -566 -370 -650 -27 -52 -75 -139 -106 -194 l-57 -98 -7 98 c-3 55 -3 211
0 349 l7 249 110 56 c104 53 156 82 350 194 81 46 95 52 95 39z"/>
</g>
</svg>
