<svg version="1.0" xmlns="http://www.w3.org/2000/svg"
 viewBox="0 0 384.000000 358.000000"
 preserveAspectRatio="xMidYMid meet">
<g transform="translate(0.000000,358.000000) scale(0.100000,-0.100000)"
fill="#444444" stroke="none">
<path d="M1270 3469 c-235 -61 -407 -229 -524 -511 -74 -178 -127 -449 -130
-663 l-1 -110 54 2 c30 2 56 5 59 7 2 3 8 65 13 138 9 150 23 212 79 340 55
129 96 192 177 279 185 195 422 223 695 83 102 -53 200 -125 252 -186 41 -47
81 -117 72 -125 -3 -3 -23 6 -44 20 -89 58 -266 134 -293 125 -6 -2 15 -21 47
-42 82 -54 253 -231 319 -330 206 -310 354 -800 415 -1371 15 -146 14 -143 68
-167 58 -26 240 -36 323 -19 71 16 180 70 253 127 l58 46 -6 72 c-43 450 -205
921 -481 1402 -261 453 -569 746 -895 852 -171 56 -368 68 -510 31z m275 -139
c131 -19 291 -84 425 -172 76 -50 256 -221 333 -317 181 -223 345 -533 466
-886 84 -243 191 -665 177 -701 -10 -26 -114 -67 -186 -72 l-67 -4 -7 82 c-17
205 -98 577 -169 770 -98 270 -212 497 -358 715 -142 212 -249 310 -442 405
-138 68 -206 84 -347 84 -99 0 -126 -4 -195 -28 -88 -30 -190 -94 -254 -157
-53 -53 -52 -35 1 44 82 122 185 199 308 233 55 15 220 17 315 4z" fill="#72FAFF"/>
<path d="M235 2213 c-25 -6 -215 -115 -215 -123 0 -3 42 -35 92 -71 181 -128
200 -133 552 -130 l269 2 71 36 c68 34 208 126 271 177 l30 25 -56 25 c-74 33
-198 70 -207 62 -3 -4 2 -20 11 -35 9 -16 17 -45 17 -65 0 -32 -6 -40 -67 -85
l-68 -50 -245 -1 c-223 0 -250 2 -299 20 -70 27 -134 60 -143 74 -16 24 -6 58
27 95 19 21 35 41 35 45 0 7 -44 6 -75 -1z" fill="#03FE03"/>
<path d="M3194 2003 c-8 -6 -3 -31 19 -86 l30 -78 74 73 c40 40 69 75 65 79
-11 10 -175 20 -188 12z" fill="#03FE03"/>
<path d="M3601 1779 c-89 -77 -164 -139 -165 -137 -2 1 -9 13 -15 26 -15 28
-29 28 -65 -2 l-30 -23 102 -221 102 -220 -25 -123 c-14 -68 -28 -131 -31
-140 -6 -20 -294 -206 -404 -261 -210 -107 -497 -157 -705 -124 -55 9 -112 19
-126 22 -20 4 -55 41 -130 137 -129 166 -154 206 -175 287 l-16 65 70 170 c39
94 73 182 77 196 l6 26 -168 12 c-262 19 -605 41 -639 41 -26 0 -47 -18 -155
-135 -68 -74 -125 -138 -127 -143 -3 -10 62 -25 502 -117 170 -35 312 -69 316
-76 10 -15 33 -159 27 -166 -3 -2 -182 -65 -399 -139 -507 -173 -539 -184
-533 -194 6 -9 292 -241 312 -253 6 -4 222 45 479 108 459 113 468 115 528
105 34 -6 78 -16 99 -21 l39 -10 -18 -27 c-10 -15 -70 -99 -134 -187 -64 -88
-125 -173 -135 -188 l-18 -28 54 24 c30 14 92 43 139 65 l85 40 74 135 c40 75
79 138 85 140 7 3 53 11 104 18 105 15 111 12 119 -51 5 -39 7 -41 32 -35 14
4 44 16 66 28 35 20 40 27 43 64 l3 41 127 56 127 56 26 -32 26 -31 52 28 51
28 -27 29 c-34 35 -42 27 127 128 168 100 162 98 210 66 22 -14 44 -26 50 -26
11 0 90 48 90 54 0 3 -32 28 -71 56 -58 42 -70 56 -65 73 3 11 13 68 22 126
l17 106 83 85 84 85 0 73 c0 42 -4 72 -10 72 -6 0 -51 -30 -101 -66 -50 -36
-97 -68 -104 -70 -8 -4 -23 10 -38 33 -54 86 -63 69 103 193 l150 112 0 89 c0
49 -4 89 -8 89 -4 0 -81 -63 -171 -141z m-1901 -370 c113 -11 213 -23 222 -27
15 -6 13 -17 -22 -101 -21 -52 -43 -98 -47 -102 -8 -8 -671 87 -682 97 -8 8
22 52 74 109 l54 58 98 -7 c54 -3 190 -15 303 -27z m282 -710 c43 -52 78 -97
78 -100 0 -4 -17 -11 -37 -17 -21 -5 -186 -50 -368 -100 -181 -50 -347 -94
-368 -98 -43 -7 -75 10 -167 94 l-55 50 410 135 c226 75 415 135 420 133 6 -1
45 -45 87 -97z"/>
<path d="M1963 1813 l-23 -4 31 -62 c40 -80 56 -97 90 -97 35 0 46 20 55 95 5
44 4 59 -7 66 -14 9 -105 10 -146 2z" fill="#03FE03"/>
</g>
</svg>
