<svg version="1.0" xmlns="http://www.w3.org/2000/svg"
 viewBox="0 0 76.000000 72.000000"
 preserveAspectRatio="xMidYMid meet">
<g transform="translate(0.000000,72.000000) scale(0.100000,-0.100000)"
fill="#444444" stroke="none">

<!-- top-left -->
<path d="M273 682 c-55 -27 -68 -42 -55 -70 33 -69 60 -118 77 -139 46 -57 51
-56 59 9 10 69 -3 228 -18 227 -6 -1 -34 -13 -63 -27z" fill="#00C5FF"/>
<!-- top-right -->
<path d="M414 664 c-23 -56 -29 -127 -12 -145 8 -8 17 -21 20 -29 3 -10 10 -6
24 15 18 27 55 65 95 99 30 26 22 44 -31 71 -65 33 -78 32 -96 -11z" fill="#00C5FF"/>
<!-- portal? -->
<path d="M373 471 c7 -27 -18 -58 -61 -79 l-37 -17 -3 -79 c-3 -69 0 -81 18
-98 11 -10 20 -27 20 -36 0 -10 11 -33 25 -52 14 -19 25 -40 25 -47 0 -32 48
-2 63 39 4 10 11 18 17 18 5 0 10 7 10 15 0 8 5 15 10 15 6 0 10 7 10 15 0 8
4 15 9 15 12 0 31 79 31 127 0 42 -14 63 -40 63 -16 0 -40 43 -55 98 -4 13
-14 22 -27 22 -15 0 -19 -5 -15 -19z"/>
<!-- right-top -->
<path d="M640 373 c-38 -5 -110 -57 -110 -79 0 -8 4 -14 9 -14 5 0 16 -7 24
-15 15 -14 175 -40 186 -29 3 2 0 14 -7 25 -10 15 -10 24 -2 34 6 8 10 29 8
47 -3 30 -6 33 -38 34 -19 1 -51 -1 -70 -3z" fill="#00C5FF"/>
<!-- left-top -->
<path d="M20 270 c0 -57 3 -71 18 -79 31 -16 147 -34 176 -27 23 6 27 11 24
38 -3 26 -10 33 -51 49 -27 11 -73 35 -103 54 -30 19 -57 35 -59 35 -3 0 -5
-31 -5 -70z" fill="#00C5FF"/>
<!-- right-bottom -->
<path d="M545 218 c-45 -26 -46 -34 -7 -69 20 -19 51 -51 69 -73 23 -29 36
-36 51 -32 30 10 92 74 92 96 0 27 -43 56 -103 70 -28 6 -59 13 -67 15 -8 3
-24 -1 -35 -7z" fill="#00C5FF"/>
<!-- -->
<path d="M276 153 c-4 -5 -24 -8 -44 -9 -51 -2 -204 -22 -210 -28 -9 -9 20
-36 39 -36 10 0 22 -6 26 -13 21 -35 123 -74 123 -48 0 5 8 12 18 15 25 8 58
55 67 94 6 30 -2 41 -19 25z" fill="#00C5FF"/>
</g>
</svg>
