<svg xmlns="http://www.w3.org/2000/svg" viewBox="0 0 20 25">
	<path
		d="M1,12.5 C1,4.5 3,4.5 6,3 C8.5,2 8.5,1 10,1 C11.5,1 11.5,2 14,3 C17,4.5 19,4.5 19,12.5 C19,18 13,24 10,24 C7,24 1,18 1,12.5Z"
		stroke="#444"
		fill="none"
	/>
	<path
		d="M10,1 C12,1 12,10 12,10 C13.5,10 19,10.5 18.95,11 C19,11.3 19.1,12 19,13 C18.95,13.2 12.2,12.3 12,12.2 C12,12.2 12,24 10,24 C8,24 8,12.2 8,12.2 C7.8,12.3 1.05,13.2 1,13 C0.9,12 1,11.3 1.05,11 C1,10.5 6.5,10 8,10 C8,10 8,1 10,1Z"
		fill="#740D08"
	/>
</svg>
